<svg xmlns="http://www.w3.org/2000/svg" viewBox="0 0 37.24 37.24">
  <defs>
    <style>
      .cls-1 {
        fill: #fff;
      }
    </style>
  </defs>
  <title>icon</title>
  <g id="topBar">
    <g>
      <path class="cls-1" d="M17.64,24.76a1.2,1.2,0,0,0,.21.17l.06,0,.18.1.08,0,.18.05a1.24,1.24,0,0,0,.27,0,1.27,1.27,0,0,0,.28,0l.17-.05.09,0,.18-.1.06,0,.21-.17L25.36,19a1.39,1.39,0,1,0-2-2L20,20.42V8.19a1.39,1.39,0,0,0-2.78,0V20.42L13.86,17a1.4,1.4,0,0,0-2,0,1.38,1.38,0,0,0,0,2Z"/>
      <path class="cls-1" d="M30,16.31a1.39,1.39,0,0,0-1.39,1.39v10H8.66v-10a1.39,1.39,0,0,0-2.78,0V29.05a1.4,1.4,0,0,0,1.39,1.4H30a1.4,1.4,0,0,0,1.39-1.4V17.7A1.39,1.39,0,0,0,30,16.31Z"/>
    </g>
    <path class="cls-1" d="M34.44,18.46,21.53,7.72v6.9C11.82,16,5.13,20.93,2.8,29.53c4.35-5.17,10-8.16,18.61-6.92-.06,0,0,0,.12,0V29.2Z"/>
  </g>
</svg>
