<svg xmlns="http://www.w3.org/2000/svg" viewBox="0 0 37.24 37.24">
  <defs>
    <style>
      .cls-1 {
        fill: none;
        stroke: #0097ba;
        stroke-linejoin: round;
        stroke-width: 3px;
      }

      .cls-2 {
        fill: #0097ba;
      }
    </style>
  </defs>
  <title>icon</title>
  <g id="topBar">
    <g>
      <path class="cls-1" d="M33.48,17.81a1.2,1.2,0,0,1,0,1.62c-2,2.17-7.88,7.91-14.86,7.91S5.75,21.6,3.77,19.43a1.2,1.2,0,0,1,0-1.62c2-2.16,7.88-7.9,14.85-7.9S31.5,15.65,33.48,17.81Z"/>
      <path class="cls-2" d="M18.62,13.71a4.92,4.92,0,1,1-4.91,4.91,4.92,4.92,0,0,1,4.91-4.91m0-3a7.92,7.92,0,1,0,7.92,7.91,7.91,7.91,0,0,0-7.92-7.91Z"/>
    </g>
  </g>
</svg>
