<svg xmlns="http://www.w3.org/2000/svg" viewBox="0 0 305.27 78.81">
  <defs>
    <style>
      .cls-1 {
        fill: #fff;
      }

      .cls-2 {
        fill: #9feaf7;
      }

      .cls-3 {
        fill: #004e75;
      }
    </style>
  </defs>
  <title>bkgd_pageCounter</title>
  <g id="topBar">
    <g>
      <rect class="cls-1" x="2.03" y="3.28" width="301.21" height="72.25" rx="36.12"/>
      <path class="cls-2" d="M267.12,3.28h-88.3L126.07,75.53H267.12a36.12,36.12,0,0,0,36.12-36.12h0A36.13,36.13,0,0,0,267.12,3.28Z"/>
      <path class="cls-3" d="M132.39,71.37a4.36,4.36,0,0,1-2.62-.87,4.43,4.43,0,0,1-1-6.2l40-54.38A4.44,4.44,0,0,1,176,15.18L136,69.56A4.45,4.45,0,0,1,132.39,71.37Z"/>
    </g>
  </g>
</svg>
