<svg xmlns="http://www.w3.org/2000/svg" viewBox="0 0 74 92">
  <defs>
    <style>
      .cls-1 {
        fill: #4db7cf;
      }
    </style>
  </defs>
  <title>icon</title>
  <g id="topBar">
    <g>
      <g>
        <path class="cls-1" d="M47.16,25.5a3.38,3.38,0,1,0,3.37,3.37A3.37,3.37,0,0,0,47.16,25.5Z"/>
        <path class="cls-1" d="M52.24,17.15H21.37a5.64,5.64,0,0,0-5.63,5.63V48.2a5.64,5.64,0,0,0,5.63,5.63H52.24a5.64,5.64,0,0,0,5.63-5.63V22.78A5.64,5.64,0,0,0,52.24,17.15Zm1.29,29.19-4.29-5.85a1.76,1.76,0,0,0-2.85,0l-1.18,1.6a1.76,1.76,0,0,1-2.85,0l-8.14-11a1.77,1.77,0,0,0-2.85,0L20.08,46.37V22.78a1.29,1.29,0,0,1,1.29-1.29H52.24a1.29,1.29,0,0,1,1.29,1.29Z"/>
      </g>
      <path class="cls-1" d="M57.58,2.06H16.42A14.07,14.07,0,0,0,2.36,16.12V75.88A14.07,14.07,0,0,0,16.42,89.94h30A6.5,6.5,0,0,0,51,88l18.7-18.7a6.6,6.6,0,0,0,1.92-4.63V16.12A14.07,14.07,0,0,0,57.58,2.06Zm-7,79.19V70.66a1.78,1.78,0,0,1,1.77-1.77H63Zm16-17.45H52.36a6.87,6.87,0,0,0-6.86,6.86V84.85H16.42a9,9,0,0,1-9-9V16.12a9,9,0,0,1,9-9H57.58a9,9,0,0,1,9,9Z"/>
    </g>
  </g>
</svg>
