<svg xmlns="http://www.w3.org/2000/svg" viewBox="0 0 74 74">
  <defs>
    <style>
      .cls-1 {
        fill: #004e75;
      }

      .cls-2 {
        fill: #fff;
        stroke: #fff;
        stroke-miterlimit: 10;
        stroke-width: 2px;
      }
    </style>
  </defs>
  <title>icon</title>
  <g id="topBar">
    <g>
      <circle class="cls-1" cx="37" cy="37" r="36"/>
      <g>
        <path class="cls-2" d="M43.16,43.21a1.41,1.41,0,0,0,0,2l8,8h-6a1.42,1.42,0,0,0,0,2.84h9.66a1.41,1.41,0,0,0,1.42-1.42V44.93a1.42,1.42,0,0,0-2.84,0v6.51l-8.23-8.23A1.43,1.43,0,0,0,43.16,43.21Z"/>
        <path class="cls-2" d="M31.82,43.07a1.41,1.41,0,0,0-2,0l-7.95,8v-6a1.42,1.42,0,1,0-2.84,0v9.66a1.41,1.41,0,0,0,1.42,1.42H30.1a1.42,1.42,0,1,0,0-2.84H23.58l8.24-8.23A1.43,1.43,0,0,0,31.82,43.07Z"/>
        <path class="cls-2" d="M43.16,30.79a1.41,1.41,0,0,1,0-2l8-8h-6a1.42,1.42,0,1,1,0-2.84h9.66a1.41,1.41,0,0,1,1.42,1.42v9.66a1.42,1.42,0,1,1-2.84,0V22.56l-8.23,8.23A1.43,1.43,0,0,1,43.16,30.79Z"/>
        <path class="cls-2" d="M31.82,30.93a1.41,1.41,0,0,1-2,0L21.86,23v5.95a1.42,1.42,0,1,1-2.84,0V19.27a1.41,1.41,0,0,1,1.42-1.42H30.1a1.42,1.42,0,0,1,0,2.84H23.58l8.24,8.23A1.43,1.43,0,0,1,31.82,30.93Z"/>
      </g>
    </g>
  </g>
</svg>
