<svg xmlns="http://www.w3.org/2000/svg" viewBox="0 0 74 74">
  <defs>
    <style>
      .cls-1 {
        fill: #004e75;
      }

      .cls-2 {
        fill: #fff;
      }
    </style>
  </defs>
  <title>icon</title>
  <g id="topBar">
    <g>
      <circle class="cls-1" cx="37" cy="37" r="36"/>
      <g>
        <path class="cls-2" d="M44.74,21.23a2.43,2.43,0,0,0-.92-.34,2.79,2.79,0,0,0-2.71,2.21l-.34,2.15C42.35,23,43.5,21.74,44.74,21.23Z"/>
        <path class="cls-2" d="M34.26,35c1.51-2,2.94-4.36,4.72-7.11V17.35a2.33,2.33,0,0,0-4.66,0v15C34.32,32.63,33.31,36.29,34.26,35Z"/>
        <path class="cls-2" d="M23.12,34.82A21.75,21.75,0,0,0,25,27.27,2.59,2.59,0,0,1,26.12,25l-1.34-6.63a2.33,2.33,0,0,0-2.7-1.79,2.22,2.22,0,0,0-1.89,2.55S22.49,30.14,23.12,34.82Z"/>
        <path class="cls-2" d="M30.35,25.11a6.35,6.35,0,0,1,2.5,2.69L32,15.1a2.33,2.33,0,0,0-4.66.21L28,24.47A5.13,5.13,0,0,1,30.35,25.11Z"/>
        <path class="cls-2" d="M18.57,36.18c-2.48-3.48-4.88-5.29-7.62-3.74-1.31.75,2,2.49,4.82,9.3a22.65,22.65,0,0,0,4.39,7.09,17.2,17.2,0,0,1,1.12-9.52l.22-.52A29.81,29.81,0,0,1,18.57,36.18Z"/>
        <path class="cls-2" d="M62.09,41.27h0a3.12,3.12,0,0,0-3.78-.22l-8.65,6.23a.33.33,0,0,1-.42,0,.3.3,0,0,1,0-.44l12-11.62a2.27,2.27,0,0,0,0-3.32,2.59,2.59,0,0,0-3.5,0L45.89,43.34a.66.66,0,0,1-.88,0,.57.57,0,0,1,0-.81L57.67,28.6a2.28,2.28,0,0,0,.19-2.94A2.56,2.56,0,0,0,54,25.48L41.34,39.34a.44.44,0,0,1-.63,0,.39.39,0,0,1-.06-.52l9-12.9A2.27,2.27,0,0,0,49,22.69a2.57,2.57,0,0,0-3.44.61S37.88,34.44,35,37.92c-.52.63-1.87,2-2.69,2.84a.57.57,0,0,1-.95-.25,27.88,27.88,0,0,1-.4-5.35c.84-4.39.43-7.45-2.87-8.19-1.58-.35-.42,3.29-3.6,10.44-1.6,3.61-3.64,9.4-.86,16,.74,1.75,2,3,4.09,5,4.64,4.29,11,3,16-.93,8-6.19,17.88-12.86,17.88-12.86A2.27,2.27,0,0,0,62.09,41.27Z"/>
      </g>
    </g>
  </g>
</svg>
