<svg xmlns="http://www.w3.org/2000/svg" viewBox="0 0 78 78">
  <defs>
    <style>
      .cls-1 {
        fill: #0098ba;
      }

      .cls-2 {
        fill: #fff;
      }

      .cls-3 {
        fill: none;
        stroke: #fff;
        stroke-linecap: round;
        stroke-linejoin: round;
        stroke-width: 3px;
      }
    </style>
  </defs>
  <title>icon</title>
  <g id="topBar">
    <g>
      <circle class="cls-1" cx="39" cy="39" r="35.48"/>
      <g>
        <path class="cls-2" d="M51.79,21V48.54A1.42,1.42,0,0,1,50.37,50H27.63a1.42,1.42,0,0,1-1.42-1.42V21a1.41,1.41,0,0,1,1.42-1.41H50.37A1.41,1.41,0,0,1,51.79,21ZM29,47.13H49V22.39H29Z"/>
        <rect class="cls-2" x="31.04" y="39.84" width="15.93" height="3.01" rx="1.5"/>
        <rect class="cls-2" x="31.04" y="33.52" width="15.93" height="3.01" rx="1.5"/>
        <rect class="cls-2" x="31.04" y="27.31" width="15.93" height="3.01" rx="1.5"/>
      </g>
      <polyline class="cls-3" points="30.46 56.24 39 64.78 47.54 56.24"/>
    </g>
  </g>
</svg>
