<svg xmlns="http://www.w3.org/2000/svg" viewBox="0 0 74 92">
  <defs>
    <style>
      .cls-1 {
        fill: #4db7cf;
      }
    </style>
  </defs>
  <title>icon</title>
  <g id="topBar">
    <g>
      <path class="cls-1" d="M44.62,25.32a2.27,2.27,0,0,0-.86-.31,2.62,2.62,0,0,0-2.55,2.08l-.31,2C42.38,27,43.46,25.8,44.62,25.32Z"/>
      <path class="cls-1" d="M34.78,38.29c1.42-1.87,2.76-4.1,4.44-6.68V21.68a2.2,2.2,0,0,0-4.39,0V35.8C34.83,36,33.88,39.47,34.78,38.29Z"/>
      <path class="cls-1" d="M24.31,38.09A20.54,20.54,0,0,0,26,31a2.43,2.43,0,0,1,1.09-2.18L25.87,22.6a2.17,2.17,0,0,0-2.53-1.69,2.08,2.08,0,0,0-1.78,2.4S23.72,33.7,24.31,38.09Z"/>
      <path class="cls-1" d="M31.11,29a5.86,5.86,0,0,1,2.34,2.52l-.76-11.93a2.19,2.19,0,0,0-4.38.19l.55,8.61A4.81,4.81,0,0,1,31.11,29Z"/>
      <path class="cls-1" d="M20,39.37c-2.33-3.27-4.59-5-7.16-3.51-1.23.7,1.87,2.33,4.52,8.73a21.47,21.47,0,0,0,4.13,6.66,16,16,0,0,1,1.06-8.94l.2-.49A28,28,0,0,1,20,39.37Z"/>
      <path class="cls-1" d="M60.93,44.15a2.94,2.94,0,0,0-3.56-.2L49.25,49.8a.33.33,0,0,1-.4,0,.28.28,0,0,1,0-.41L60.08,38.44a2.13,2.13,0,0,0,0-3.12,2.42,2.42,0,0,0-3.28,0l-11,10.73a.6.6,0,0,1-.83,0,.53.53,0,0,1,0-.76L56.77,32.25A2.15,2.15,0,0,0,57,29.48a2.42,2.42,0,0,0-3.66-.16l-11.86,13a.44.44,0,0,1-.6,0,.37.37,0,0,1,0-.49l8.44-12.12a2.13,2.13,0,0,0-.6-3.06,2.4,2.4,0,0,0-3.23.57S38.18,37.74,35.46,41c-.49.59-1.75,1.88-2.52,2.66a.54.54,0,0,1-.9-.23,26.43,26.43,0,0,1-.37-5c.79-4.12.41-7-2.69-7.69-1.49-.33-.4,3.09-3.39,9.81-1.51,3.39-3.42,8.83-.81,15,.7,1.65,1.85,2.83,3.84,4.67C33,64.23,39,63,43.68,59.33c7.48-5.82,16.8-12.09,16.8-12.09a2.14,2.14,0,0,0,.45-3.09Z"/>
      <path class="cls-1" d="M57.58,2.06H16.42A14.07,14.07,0,0,0,2.36,16.12V75.88A14.07,14.07,0,0,0,16.42,89.94h30A6.5,6.5,0,0,0,51,88l18.7-18.7a6.6,6.6,0,0,0,1.92-4.63V16.12A14.07,14.07,0,0,0,57.58,2.06Zm-7,79.19V70.66a1.78,1.78,0,0,1,1.77-1.77H63Zm16-17.45H52.36a6.87,6.87,0,0,0-6.86,6.86V84.85H16.42a9,9,0,0,1-9-9V16.12a9,9,0,0,1,9-9H57.58a9,9,0,0,1,9,9Z"/>
    </g>
  </g>
</svg>
