<svg xmlns="http://www.w3.org/2000/svg" viewBox="0 0 58.86 52.87">
  <defs>
    <style>
      .cls-1 {
        fill: #f2f2f2;
      }
    </style>
  </defs>
  <title>icon</title>
  <g id="topBar">
    <g>
      <path class="cls-1" d="M42.38,13.94a4.22,4.22,0,1,0,4.22,4.22A4.22,4.22,0,0,0,42.38,13.94Z"/>
      <path class="cls-1" d="M48.74,3.5H10.12a7.05,7.05,0,0,0-7,7V42.33a7,7,0,0,0,7,7H48.74a7,7,0,0,0,7-7V10.54A7.05,7.05,0,0,0,48.74,3.5ZM50.35,40,45,32.69a2.22,2.22,0,0,0-3.58,0l-1.47,2a2.21,2.21,0,0,1-3.57,0L26.2,20.94a2.21,2.21,0,0,0-3.56,0L8.51,40.05V10.54a1.61,1.61,0,0,1,1.61-1.61H48.74a1.61,1.61,0,0,1,1.61,1.61Z"/>
    </g>
  </g>
</svg>
