<svg xmlns="http://www.w3.org/2000/svg" viewBox="0 0 74 74">
  <defs>
    <style>
      .cls-1 {
        fill: #004e75;
      }

      .cls-2 {
        fill: #fff;
        stroke: #fff;
        stroke-miterlimit: 10;
        stroke-width: 2px;
      }
    </style>
  </defs>
  <title>icon_SV_FullScreen_Reverse</title>
  <g id="topBar">
    <g>
      <circle class="cls-1" cx="37" cy="37" r="36"/>
      <g>
        <path class="cls-2" d="M55.83,55.6a1.43,1.43,0,0,0,0-2l-7.95-8h5.94a1.43,1.43,0,0,0,0-2.85H44.16a1.43,1.43,0,0,0-1.42,1.43v9.66a1.42,1.42,0,1,0,2.84,0V47.36l8.24,8.24A1.43,1.43,0,0,0,55.83,55.6Z"/>
        <path class="cls-2" d="M19.43,55.74a1.43,1.43,0,0,0,2,0l8-8v6a1.42,1.42,0,1,0,2.84,0V44.07a1.42,1.42,0,0,0-1.42-1.42H21.15a1.42,1.42,0,1,0,0,2.84h6.52l-8.24,8.24A1.43,1.43,0,0,0,19.43,55.74Z"/>
        <path class="cls-2" d="M55.83,18.4a1.43,1.43,0,0,1,0,2l-7.95,8h5.94a1.43,1.43,0,0,1,0,2.85H44.16a1.43,1.43,0,0,1-1.42-1.43V20.12a1.42,1.42,0,0,1,2.84,0v6.52l8.24-8.24A1.43,1.43,0,0,1,55.83,18.4Z"/>
        <path class="cls-2" d="M19.43,18.26a1.43,1.43,0,0,1,2,0l8,8V20.26a1.42,1.42,0,1,1,2.84,0v9.67a1.42,1.42,0,0,1-1.42,1.42H21.15a1.42,1.42,0,1,1,0-2.84h6.52l-8.24-8.24A1.43,1.43,0,0,1,19.43,18.26Z"/>
      </g>
    </g>
  </g>
</svg>
