<svg xmlns="http://www.w3.org/2000/svg" viewBox="0 0 78 78">
  <defs>
    <style>
      .cls-1 {
        fill: #0098ba;
      }

      .cls-2 {
        fill: #fff;
      }

      .cls-3 {
        fill: none;
        stroke: #fff;
        stroke-linecap: round;
        stroke-linejoin: round;
        stroke-width: 3px;
      }
    </style>
  </defs>
  <title>icon</title>
  <g id="topBar">
    <g>
      <circle class="cls-1" cx="39" cy="39" r="35.48"/>
      <g>
        <path class="cls-2" d="M50.37,58.44H27.63A1.41,1.41,0,0,1,26.21,57V29.46A1.42,1.42,0,0,1,27.63,28H50.37a1.42,1.42,0,0,1,1.42,1.42V57A1.41,1.41,0,0,1,50.37,58.44ZM29,55.61H49V30.87H29Z"/>
        <rect class="cls-2" x="31.04" y="35.15" width="15.93" height="3.01" rx="1.5"/>
        <rect class="cls-2" x="31.04" y="41.47" width="15.93" height="3.01" rx="1.5"/>
        <rect class="cls-2" x="31.04" y="47.69" width="15.93" height="3.01" rx="1.5"/>
      </g>
      <polyline class="cls-3" points="30.46 21.76 39 13.22 47.54 21.76"/>
    </g>
  </g>
</svg>
