<svg xmlns="http://www.w3.org/2000/svg" viewBox="0 0 42.12 40">
  <defs>
    <style>
      .cls-1 {
        fill: #fcc251;
      }
    </style>
  </defs>
  <title>icon</title>
  <g id="topBar">
    <g>
      <path class="cls-1" d="M27.5,32.78a20.31,20.31,0,0,0,1.17-2.61,33,33,0,0,0-6.76-.82v8.37C24,37.36,26,35.63,27.5,32.78Z"/>
      <path class="cls-1" d="M30.34,20.85H21.91v6.8a36.24,36.24,0,0,1,7.29.91A30.21,30.21,0,0,0,30.34,20.85Z"/>
      <path class="cls-1" d="M12.92,28.56a36.25,36.25,0,0,1,7.3-.91v-6.8H11.78A30.59,30.59,0,0,0,12.92,28.56Z"/>
      <path class="cls-1" d="M11.78,19.15h8.44v-6.8a36.25,36.25,0,0,1-7.3-.91A30.66,30.66,0,0,0,11.78,19.15Z"/>
      <path class="cls-1" d="M27.5,7.22C26,4.37,24,2.64,21.91,2.28v8.38a33.7,33.7,0,0,0,6.76-.83A20.31,20.31,0,0,0,27.5,7.22Z"/>
      <path class="cls-1" d="M29.2,11.44a36.24,36.24,0,0,1-7.29.91v6.8h8.43A30.59,30.59,0,0,0,29.2,11.44Z"/>
      <path class="cls-1" d="M33.85,8l.22-.12a17.75,17.75,0,0,0-7.49-4.82A17.22,17.22,0,0,1,30.32,9.4,22,22,0,0,0,33.85,8Z"/>
      <path class="cls-1" d="M20.22,37.72V29.35a33.11,33.11,0,0,0-6.77.82,21,21,0,0,0,1.17,2.61C16.18,35.63,18.16,37.36,20.22,37.72Z"/>
      <path class="cls-1" d="M11.28,29a33.48,33.48,0,0,1-1.19-8.14H3.34a17.57,17.57,0,0,0,3.6,9.9A22.33,22.33,0,0,1,11.28,29Z"/>
      <path class="cls-1" d="M30.84,29a22.06,22.06,0,0,1,4.35,1.76,17.71,17.71,0,0,0,3.59-9.9H32A32.93,32.93,0,0,1,30.84,29Z"/>
      <path class="cls-1" d="M30.32,30.6a17.22,17.22,0,0,1-3.74,6.31,17.76,17.76,0,0,0,7.48-4.82L33.85,32A22,22,0,0,0,30.32,30.6Z"/>
      <path class="cls-1" d="M30.84,11A33.48,33.48,0,0,1,32,19.15h6.75a17.64,17.64,0,0,0-3.59-9.9A22.69,22.69,0,0,1,30.84,11Z"/>
      <path class="cls-1" d="M13.45,9.83a33.8,33.8,0,0,0,6.77.83V2.28c-2.06.36-4,2.09-5.6,4.94A20.31,20.31,0,0,0,13.45,9.83Z"/>
      <path class="cls-1" d="M8.28,32l-.22.12a17.66,17.66,0,0,0,7.48,4.82A17.14,17.14,0,0,1,11.8,30.6,21.52,21.52,0,0,0,8.28,32Z"/>
      <path class="cls-1" d="M11.8,9.39a17.17,17.17,0,0,1,3.74-6.3A17.66,17.66,0,0,0,8.06,7.91L8.28,8A20.65,20.65,0,0,0,11.8,9.39Z"/>
      <path class="cls-1" d="M11.28,11A22.06,22.06,0,0,1,6.93,9.25a17.76,17.76,0,0,0-3.59,9.9h6.75A33.41,33.41,0,0,1,11.28,11Z"/>
    </g>
  </g>
</svg>
