<svg xmlns="http://www.w3.org/2000/svg" viewBox="0 0 40 40">
  <defs>
    <style>
      .cls-1 {
        fill: #fff;
      }
    </style>
  </defs>
  <title>icon</title>
  <g id="topBar">
    <g>
      <path class="cls-1" d="M26.44,32.78a20.31,20.31,0,0,0,1.17-2.61,33,33,0,0,0-6.76-.82v8.37C22.9,37.36,24.89,35.63,26.44,32.78Z"/>
      <path class="cls-1" d="M29.28,20.85H20.85v6.8a36.24,36.24,0,0,1,7.29.91A30.21,30.21,0,0,0,29.28,20.85Z"/>
      <path class="cls-1" d="M11.86,28.56a36.25,36.25,0,0,1,7.3-.91v-6.8H10.72A30.59,30.59,0,0,0,11.86,28.56Z"/>
      <path class="cls-1" d="M10.72,19.15h8.44v-6.8a36.25,36.25,0,0,1-7.3-.91A30.66,30.66,0,0,0,10.72,19.15Z"/>
      <path class="cls-1" d="M26.44,7.22c-1.55-2.85-3.54-4.58-5.59-4.94v8.38a33.7,33.7,0,0,0,6.76-.83A20.31,20.31,0,0,0,26.44,7.22Z"/>
      <path class="cls-1" d="M28.14,11.44a36.24,36.24,0,0,1-7.29.91v6.8h8.43A30.59,30.59,0,0,0,28.14,11.44Z"/>
      <path class="cls-1" d="M32.79,8,33,7.91a17.75,17.75,0,0,0-7.49-4.82A17.22,17.22,0,0,1,29.26,9.4,22,22,0,0,0,32.79,8Z"/>
      <path class="cls-1" d="M19.16,37.72V29.35a33.11,33.11,0,0,0-6.77.82,21,21,0,0,0,1.17,2.61C15.12,35.63,17.1,37.36,19.16,37.72Z"/>
      <path class="cls-1" d="M10.22,29A33.48,33.48,0,0,1,9,20.85H2.28a17.57,17.57,0,0,0,3.6,9.9A22.33,22.33,0,0,1,10.22,29Z"/>
      <path class="cls-1" d="M29.78,29a22.06,22.06,0,0,1,4.35,1.76,17.71,17.71,0,0,0,3.59-9.9H31A32.93,32.93,0,0,1,29.78,29Z"/>
      <path class="cls-1" d="M29.26,30.6a17.22,17.22,0,0,1-3.74,6.31A17.76,17.76,0,0,0,33,32.09L32.79,32A22,22,0,0,0,29.26,30.6Z"/>
      <path class="cls-1" d="M29.78,11A33.48,33.48,0,0,1,31,19.15h6.75a17.64,17.64,0,0,0-3.59-9.9A22.69,22.69,0,0,1,29.78,11Z"/>
      <path class="cls-1" d="M12.39,9.83a33.8,33.8,0,0,0,6.77.83V2.28c-2.06.36-4,2.09-5.6,4.94A20.31,20.31,0,0,0,12.39,9.83Z"/>
      <path class="cls-1" d="M7.22,32,7,32.09a17.66,17.66,0,0,0,7.48,4.82,17.14,17.14,0,0,1-3.74-6.31A21.52,21.52,0,0,0,7.22,32Z"/>
      <path class="cls-1" d="M10.74,9.39a17.17,17.17,0,0,1,3.74-6.3A17.66,17.66,0,0,0,7,7.91L7.22,8A20.65,20.65,0,0,0,10.74,9.39Z"/>
      <path class="cls-1" d="M10.22,11A22.06,22.06,0,0,1,5.87,9.25a17.76,17.76,0,0,0-3.59,9.9H9A33.41,33.41,0,0,1,10.22,11Z"/>
    </g>
  </g>
</svg>
