<svg xmlns="http://www.w3.org/2000/svg" viewBox="0 0 54.54 53.38">
  <defs>
    <style>
      .cls-1 {
        fill: #fff;
      }
    </style>
  </defs>
  <title>icon</title>
  <g id="topBar">
    <g>
      <path class="cls-1" d="M35.14,11.4a2.32,2.32,0,0,0-.9-.33,2.7,2.7,0,0,0-2.62,2.15l-.33,2.07C32.82,13.11,33.94,11.89,35.14,11.4Z"/>
      <path class="cls-1" d="M25,24.78c1.46-1.92,2.84-4.22,4.58-6.89V7.64a2.27,2.27,0,0,0-4.53,0V22.22C25,22.46,24.05,26,25,24.78Z"/>
      <path class="cls-1" d="M14.16,24.58A21,21,0,0,0,16,17.25,2.5,2.5,0,0,1,17.08,15l-1.3-6.43a2.27,2.27,0,0,0-2.62-1.75,2.17,2.17,0,0,0-1.84,2.48S13.55,20,14.16,24.58Z"/>
      <path class="cls-1" d="M21.18,15.17a6.14,6.14,0,0,1,2.43,2.6L22.82,5.45a2.26,2.26,0,0,0-4.52.2l.57,8.89A5,5,0,0,1,21.18,15.17Z"/>
      <path class="cls-1" d="M9.75,25.9C7.34,22.52,5,20.77,2.36,22.28,1.09,23,4.3,24.69,7,31.29a21.89,21.89,0,0,0,4.27,6.88,16.53,16.53,0,0,1,1.08-9.23c.08-.18.14-.34.22-.51A28.2,28.2,0,0,1,9.75,25.9Z"/>
      <path class="cls-1" d="M52,30.84h0a3,3,0,0,0-3.68-.21l-8.38,6a.33.33,0,0,1-.42,0,.28.28,0,0,1,0-.42L51.1,24.94a2.2,2.2,0,0,0-.05-3.22,2.51,2.51,0,0,0-3.39,0L36.26,32.84a.62.62,0,0,1-.86,0,.54.54,0,0,1,0-.78L47.69,18.55a2.23,2.23,0,0,0,.18-2.86,2.5,2.5,0,0,0-3.78-.17L31.84,29a.43.43,0,0,1-.61,0,.39.39,0,0,1-.06-.51L39.89,16a2.2,2.2,0,0,0-.62-3.16,2.49,2.49,0,0,0-3.34.59S28.49,24.22,25.68,27.59c-.51.61-1.81,1.95-2.61,2.76a.55.55,0,0,1-.92-.24,26,26,0,0,1-.38-5.2c.81-4.25.41-7.22-2.79-7.94-1.53-.35-.41,3.19-3.5,10.13-1.55,3.5-3.52,9.11-.83,15.49.72,1.7,1.91,2.92,4,4.83,4.5,4.16,10.69,2.87,15.55-.91C41.89,40.51,51.52,34,51.52,34A2.21,2.21,0,0,0,52,30.84Z"/>
    </g>
  </g>
</svg>
