<svg xmlns="http://www.w3.org/2000/svg" viewBox="0 0 68 68">
  <defs>
    <style>
      .cls-1 {
        fill: #004e75;
      }

      .cls-2 {
        fill: #fff;
        stroke: #fff;
        stroke-miterlimit: 10;
        stroke-width: 0.5px;
        fill-rule: evenodd;
      }
    </style>
  </defs>
  <title>icon</title>
  <g id="buttons">
    <g>
      <rect class="cls-1" x="1.31" y="1.31" width="65.37" height="65.37" rx="14"/>
      <path class="cls-2" d="M38.51,24.48a.75.75,0,0,1,.76-.75h8.27a1.54,1.54,0,0,1,1.53,1.47L49.76,43a3.07,3.07,0,0,0,.44,1.37l5.07,7.56a3,3,0,0,1,.41,1.89l-.13.78a1.67,1.67,0,0,1-1.62,1.36H14.07a1.68,1.68,0,0,1-1.62-1.36l-.13-.78a2.92,2.92,0,0,1,.41-1.89l5.07-7.56A3.07,3.07,0,0,0,18.24,43l.69-17.75a1.53,1.53,0,0,1,1.53-1.47h8.27a.76.76,0,0,1,0,1.51H21.17a.8.8,0,0,0-.77.75l-.63,16.44a.71.71,0,0,0,.72.74h27a.71.71,0,0,0,.72-.74L47.57,26a.79.79,0,0,0-.79-.75H39.27A.75.75,0,0,1,38.51,24.48Zm9.38,20.2H20.11A1.55,1.55,0,0,0,19,45.3l-5,7.41a1.45,1.45,0,0,0-.17.82l.13.77s.08.11.13.11H53.93a.16.16,0,0,0,.13-.11l.13-.77a1.45,1.45,0,0,0-.17-.82l-5-7.41A1.57,1.57,0,0,0,47.89,44.68ZM34.52,9l9,9a.75.75,0,0,1-1.07,1.06l-7.2-7.18c-.29-.29-.53-.19-.53.22V30.17a.75.75,0,0,1-1.5,0V12.12c0-.41-.24-.51-.53-.22l-7.2,7.18A.75.75,0,0,1,24.46,18l9-9A.75.75,0,0,1,34.52,9Z"/>
    </g>
  </g>
</svg>
