<svg xmlns="http://www.w3.org/2000/svg" viewBox="0 0 726.27 560.66">
  <defs>
    <style>
      .cls-1 {
        fill: #ddf8fc;
      }
    </style>
  </defs>
  <title>icon</title>
  <g id="buttons">
    <path class="cls-1" d="M67.31,10.49A59.9,59.9,0,0,0,7.52,70.29v276a12.47,12.47,0,0,0,0,6.13v138a59.89,59.89,0,0,0,59.79,59.79H659.12a59.9,59.9,0,0,0,59.8-59.79V302.56a12.27,12.27,0,0,0,0-4.6V70.29a59.91,59.91,0,0,0-59.8-59.8Zm0,24.53H659.12a34.89,34.89,0,0,1,35.27,35.27V268.83c-36-34.93-74.88-50.36-112.69-50.59-45.64-.27-89.5,19.82-131.09,45.23-3.45,2.1-6.55,4.72-10,6.9-4.61-53.88-49-97.75-105-100.43-60.2-2.87-111.56,42.79-115.75,102-9.15-3.76-18.66-7.5-28.37-10C140.67,249,83.15,259.31,32.05,314.83V70.29A34.89,34.89,0,0,1,67.31,35ZM329.49,80.25a12.27,12.27,0,0,0-9.2,12.27v39.86a12.27,12.27,0,0,0,24.53.35V92.52a12.28,12.28,0,0,0-15.33-12.27Zm87.39,24.53a12.29,12.29,0,0,0-8.43,6.13l-22.23,33.74a12.26,12.26,0,1,0,19.68,14.64,11.73,11.73,0,0,0,1-1.61L428.38,124a12.27,12.27,0,0,0-11.5-19.17Zm-200.08,13a12.28,12.28,0,0,0-5.37,19.94L239,168.41a12.48,12.48,0,1,0,18.4-16.87l-27.6-29.89A12.26,12.26,0,0,0,216.8,117.81Zm271.37,56.73a12.38,12.38,0,0,0-3.06.77,11.65,11.65,0,0,0-1.54.77l-36,18.39a12.34,12.34,0,1,0,10.74,22.23h0l36-18.39a12.39,12.39,0,0,0-6.14-23.77ZM157,187.57a12.27,12.27,0,0,0,0,23.77l38.33,13a12.49,12.49,0,1,0,7.9-23.69l-.23-.07-38.33-12.27A12.32,12.32,0,0,0,157,187.57Zm177.85,6.9c47.7,2.28,83.57,41.76,81.26,88.93a12.62,12.62,0,0,0,0,2.3c-29,19.94-56.65,41.34-82.79,59-2.09,1.42-4.06,1.69-6.13,3.06-20-21-49-45.71-83.56-64.39a12.13,12.13,0,0,0,0-3.07c0-1.57-.08-3.79,0-5.36C245.93,227.8,287.16,192.19,334.85,194.47Zm246.85,48.3c37.58.24,74.45,16.53,112.69,62.86V490.38a34.89,34.89,0,0,1-35.27,35.26H67.31a34.89,34.89,0,0,1-35.26-35.26V353.16C82.94,282.4,135.48,273,185.37,285.7c47.76,12.16,91.68,46.81,119.59,75.12-24.82,14.31-48.22,25.3-66.7,25.3a12.27,12.27,0,1,0-.34,24.53h.34c35.52,0,71.41-20.65,108.86-46s76.69-56.16,116.52-80.49S543.4,242.53,581.7,242.77Z"/>
  </g>
</svg>
