<svg xmlns="http://www.w3.org/2000/svg" viewBox="0 0 92 92">
  <defs>
    <style>
      .cls-1 {
        fill: #0098ba;
      }

      .cls-2 {
        fill: #fff;
      }
    </style>
  </defs>
  <title>icon</title>
  <g id="topBar">
    <g>
      <path class="cls-1" d="M46,2A44,44,0,0,0,16.65,78.8a41.4,41.4,0,0,0,3.43,2.76,44,44,0,0,0,51.84,0,43.13,43.13,0,0,0,3.43-2.76A44,44,0,0,0,46,2Z"/>
      <g>
        <path class="cls-2" d="M65.44,48.24H51.3l-.15,1.54a9.82,9.82,0,0,1-1.08,2.92,4.52,4.52,0,0,1-4.15,2.61h-.15c-4.3,0-5.22-5.23-5.22-5.53l-.16-1.54H26.26L19.65,74.51l3.38.93,6-23.67h8.45c.92,3.38,3.69,7.07,8.3,7.07h.15c4.61,0,7.38-3.69,8.3-7.07h8.45l6.3,24,3.38-.92Z"/>
        <path class="cls-2" d="M45.92,46.09A15.06,15.06,0,1,0,30.87,31,15.08,15.08,0,0,0,45.92,46.09Zm0-26.43A11.37,11.37,0,1,1,34.55,31,11.34,11.34,0,0,1,45.92,19.66Z"/>
      </g>
    </g>
  </g>
</svg>
