<svg xmlns="http://www.w3.org/2000/svg" viewBox="0 0 92 92">
  <defs>
    <style>
      .cls-1 {
        fill: #004e75;
      }

      .cls-2 {
        fill: #fff;
      }
    </style>
  </defs>
  <title>icon</title>
  <g id="topBar">
    <g>
      <circle class="cls-1" cx="46" cy="46" r="43.99"/>
      <path class="cls-2" d="M21.93,25.78A47.36,47.36,0,0,0,14,29.39a1.38,1.38,0,0,0-.57,1.52l1.26,4.72A42.08,42.08,0,0,0,10.67,39a1.37,1.37,0,0,0-.39,1.38L19.19,73.6a1.37,1.37,0,0,0,1.7,1,1.4,1.4,0,0,0,.57-.32,30.54,30.54,0,0,1,13-7.57h0a32.72,32.72,0,0,1,14.85-.61,1.52,1.52,0,0,0,.67,0l1.33-.36a1.4,1.4,0,0,0,.58-.33,32.66,32.66,0,0,1,13.17-6.92h0a30.52,30.52,0,0,1,15,.07,1.38,1.38,0,0,0,1.66-1,1.47,1.47,0,0,0,0-.66L72.81,23.56a1.38,1.38,0,0,0-1-1,40.84,40.84,0,0,0-5.18-.86L65.35,17a1.36,1.36,0,0,0-1.25-1,26.93,26.93,0,0,0-8.78.85A29.53,29.53,0,0,0,40.14,26.7a29.49,29.49,0,0,0-18.08-.95Zm.84,2.63a26.67,26.67,0,0,1,16.67,1l8.37,31.23a29.48,29.48,0,0,0-16.48-.28,25.94,25.94,0,0,0-6.4,2.73L16.4,31.25A62.52,62.52,0,0,1,22.77,28.41ZM56,19.5A23.28,23.28,0,0,1,63,18.75L71.5,50.61a26.08,26.08,0,0,0-6.91.82A29.36,29.36,0,0,0,50.5,60L42.11,28.73A26.63,26.63,0,0,1,56,19.5Zm11.34,5.09c1,.15,2,.32,3,.53L78.5,55.44a31.88,31.88,0,0,0-14.17.34h0A37.16,37.16,0,0,0,53.8,60.47a26.71,26.71,0,0,1,11.51-6.38,23.85,23.85,0,0,1,7.91-.76A1.38,1.38,0,0,0,74.67,52a1.27,1.27,0,0,0,0-.43ZM15.5,38.52l7.23,27a1.38,1.38,0,0,0,1.7,1,1.46,1.46,0,0,0,.38-.18A23.8,23.8,0,0,1,32,63a26.56,26.56,0,0,1,13.24-.23A37.12,37.12,0,0,0,33.75,64h0a32,32,0,0,0-12.44,6.79L13.17,40.48C13.93,39.79,14.71,39.14,15.5,38.52Z"/>
    </g>
  </g>
</svg>
