<svg xmlns="http://www.w3.org/2000/svg" viewBox="0 0 92 92">
  <defs>
    <style>
      .cls-1 {
        fill: #0098ba;
      }

      .cls-2 {
        fill: #fff;
      }
    </style>
  </defs>
  <title>icon</title>
  <g id="topBar">
    <g>
      <circle class="cls-1" cx="46" cy="46" r="44"/>
      <g>
        <path class="cls-2" d="M61.11,26.24,23.42,33.82a17.87,17.87,0,1,0,20.8,22l6.21-1.25a17.85,17.85,0,1,0,10.68-28.3ZM67.4,57.46a13.9,13.9,0,0,1-14.48-6.13l-.72-1.11L40.91,52.49l-.23,1.3a14,14,0,1,1-16.5-16.16l37.7-7.58A14,14,0,0,1,67.4,57.46Z"/>
        <path class="cls-2" d="M68.51,37.43a2.72,2.72,0,1,0-2.12,3.2A2.71,2.71,0,0,0,68.51,37.43Z"/>
        <path class="cls-2" d="M67.53,46.34a2.72,2.72,0,1,0,3.21,2.13A2.71,2.71,0,0,0,67.53,46.34Z"/>
        <path class="cls-2" d="M61.13,42.08a2.72,2.72,0,1,0,3.2,2.13A2.73,2.73,0,0,0,61.13,42.08Z"/>
        <path class="cls-2" d="M72.17,39.86A2.72,2.72,0,1,0,75.38,42,2.73,2.73,0,0,0,72.17,39.86Z"/>
        <path class="cls-2" d="M32.42,48.06l-3.61.72-.73-3.61a2.33,2.33,0,1,0-4.57.92l.73,3.61-3.62.73A2.33,2.33,0,1,0,21.54,55l3.62-.73.72,3.62A2.33,2.33,0,1,0,30.45,57l-.73-3.62,3.62-.72a2.33,2.33,0,1,0-.92-4.57Z"/>
      </g>
    </g>
  </g>
</svg>
