<svg xmlns="http://www.w3.org/2000/svg" viewBox="0 0 92 106.75">
  <defs>
    <style>
      .cls-1 {
        fill: #8cd1e0;
      }

      .cls-2 {
        opacity: 0.9;
      }

      .cls-3 {
        fill: #fff;
      }

      .cls-4 {
        fill: #004e75;
      }
    </style>
  </defs>
  <title>icon</title>
  <g id="topBar">
    <g>
      <g>
        <circle class="cls-1" cx="46" cy="61.55" r="43.99"/>
        <g class="cls-2">
          <path class="cls-3" d="M21.93,41.33A47.36,47.36,0,0,0,14,44.94a1.37,1.37,0,0,0-.57,1.51l1.26,4.72a42.19,42.19,0,0,0-4.05,3.34,1.36,1.36,0,0,0-.39,1.37l8.91,33.27a1.39,1.39,0,0,0,1.7,1,1.4,1.4,0,0,0,.57-.32,30.44,30.44,0,0,1,13-7.57h0a32.75,32.75,0,0,1,14.85-.62,1.27,1.27,0,0,0,.67,0l1.33-.35a1.31,1.31,0,0,0,.58-.34A32.79,32.79,0,0,1,65.05,74h0a30.52,30.52,0,0,1,15,.08,1.38,1.38,0,0,0,1.66-1,1.47,1.47,0,0,0,0-.66L72.81,39.1a1.37,1.37,0,0,0-1-1,40.84,40.84,0,0,0-5.18-.86l-1.26-4.7a1.39,1.39,0,0,0-1.25-1,27.21,27.21,0,0,0-8.78.86,29.57,29.57,0,0,0-15.18,9.86,29.49,29.49,0,0,0-18.08-.94ZM22.77,44a26.67,26.67,0,0,1,16.67,1l8.37,31.23a29.48,29.48,0,0,0-16.48-.29,26,26,0,0,0-6.4,2.74L16.4,46.8A62.52,62.52,0,0,1,22.77,44ZM56,35A23.27,23.27,0,0,1,63,34.3L71.5,66.15a26.1,26.1,0,0,0-6.91.83A29.36,29.36,0,0,0,50.5,75.57L42.11,44.28A26.59,26.59,0,0,1,56,35Zm11.34,5.1c1,.14,2,.32,3,.53L78.5,71a32,32,0,0,0-14.17.35h0A37.16,37.16,0,0,0,53.8,76a26.71,26.71,0,0,1,11.51-6.38,23.85,23.85,0,0,1,7.91-.76,1.38,1.38,0,0,0,1.45-1.3,1.32,1.32,0,0,0,0-.44ZM15.5,54.06l7.23,27a1.37,1.37,0,0,0,1.7,1,1.43,1.43,0,0,0,.38-.17A23.83,23.83,0,0,1,32,78.55c4.5-1.2,6.71-1.52,11-.5-3.43-.18-5.17.4-9.28,1.49h0a32,32,0,0,0-12.44,6.79L13.17,56C13.93,55.34,14.71,54.68,15.5,54.06Z"/>
        </g>
      </g>
      <g>
        <path class="cls-4" d="M74.27,11.31A5.47,5.47,0,0,0,71.5,4.09L66,1.65A5.61,5.61,0,0,0,58.81,4.4l-2.73,6.12,15.45,6.91Z"/>
        <polygon class="cls-4" points="31.22 66.11 46.69 73.03 70.3 20.19 54.84 13.29 31.22 66.11"/>
        <path class="cls-4" d="M28.35,89.77a1.52,1.52,0,0,0,.9,1.53,1.55,1.55,0,0,0,1.16,0,1.39,1.39,0,0,0,.57-.39L45.1,75.55,30.42,69Z"/>
        <path class="cls-4" d="M51.11,8.3a1.55,1.55,0,0,0-2,.77l-8.3,18.57a1.51,1.51,0,0,0,2.76,1.24l7.68-17.2,3.59,1.61,1.24-2.77Z"/>
        <path class="cls-4" d="M73.25,18.2l-1.72-.77L70.3,20.19,72,21a1.53,1.53,0,0,0,1.17,0,1.46,1.46,0,0,0,.83-.79A1.49,1.49,0,0,0,73.25,18.2Z"/>
      </g>
    </g>
  </g>
</svg>
