<?xml version="1.0" encoding="utf-8"?>
<!-- Generator: Adobe Illustrator 23.0.2, SVG Export Plug-In . SVG Version: 6.00 Build 0)  -->
<svg version="1.1" id="Layer_1" xmlns="http://www.w3.org/2000/svg" xmlns:xlink="http://www.w3.org/1999/xlink" x="0px" y="0px"
	 viewBox="0 0 554.6 260" style="enable-background:new 0 0 554.6 260;" xml:space="preserve">
<style type="text/css">
	.st0{fill:#004E75;}
	.st1{fill:#B2E0EA;}
	.st2{fill:#FFFFFF;}
	.st3{fill:#0097BA;}
</style>
<g>
	<g>
		<path class="st1" d="M35.6,48.2v164.2h211.1V48.2H141.1L64.4,24.7v23.5H35.6z M135.2,200.6l-59.1-22.2V40.6l59.1,19.3V200.6z
			 M47.3,59.9h17.1v127.2l38.4,13.5H47.3V59.9z"/>
		<g>
			<path class="st2" d="M179,142l30.2-53.2c2.3-4.1,7.4-5.7,11.3-3.5l0.5,0.3c3.9,2.2,5.2,7.3,2.8,11.5l-37.1,65.7
				c-0.2,0.3-0.2,0.7,0,1.1c0,0,0,0,0,0c0.4,0.7,1.3,0.6,1.7-0.1l26.6-47.1c2.3-4.1,7.4-5.7,11.3-3.5l0.5,0.3
				c3.9,2.2,5.2,7.3,2.8,11.5c0,0-47.2,84.2-47.2,84.2c-14.1,21.9-40,27-60.2,15.6c-0.4-0.3-0.9-0.5-1.3-0.8
				c-0.6-0.3-1.1-0.6-1.7-0.9c-23-13-30.5-43.3-16.7-67.7c-4.8,8.5,11.1-19.7,35.4-62.7c8.6,4.8,11.3,16.1,6.2,25.2l-5.7,9.9
				l3.4,1.9l33.3-58.8c2.3-4.1,7.4-5.7,11.3-3.5l0.5,0.3c3.9,2.2,5.2,7.3,2.8,11.5l-30.4,53.8l2.2,1.2l35-61.9
				c2.3-4.1,7.4-5.7,11.3-3.5l0.5,0.3c3.9,2.2,5.2,7.3,2.8,11.5l-34.2,60.4L179,142z"/>
			<g>
				<g>
					<path class="st3" d="M139.9,135.2L139.9,135.2c-4,0-8.2,4.8-11.4,12.8c-1.1,2.9-2.1,6.1-2.9,9.5c4.2,0.3,8.9,0.5,14.2,0.5
						c0,0,0.1,0,0.1,0c5.4,0,10.2-0.2,14.3-0.5c-0.8-3.4-1.8-6.6-2.9-9.5C148.1,140,143.8,135.2,139.9,135.2z"/>
					<path class="st3" d="M176.9,153.5c-6.3-8.2-15.4-14.3-25.7-16.9c0,0,0,0,0,0c1.9,2.5,3.6,5.6,5.1,9.4c1.3,3.3,2.4,7,3.3,11
						c0,0,0,0,0,0C168.2,156,173.8,154.5,176.9,153.5z"/>
					<path class="st3" d="M180,158c-3.2,1.2-9.3,3.1-19.4,4.2c0,0,0,0,0,0c1,6.1,1.6,12.8,1.6,19.6c0,1.2,0,2.4-0.1,3.6c0,0,0,0,0,0
						c14-1.5,21.6-4.1,24.4-5.3C186.3,172.1,183.9,164.6,180,158C180,158,180,158,180,158z"/>
					<path class="st3" d="M113.5,156.1c2,0.3,4.2,0.7,6.6,0.9c0,0,0,0,0,0c0.9-4,2-7.6,3.3-11c1.5-3.8,3.2-6.9,5.1-9.4c0,0,0,0,0,0
						c-5.4,1.3-10.5,3.6-15.1,6.8V156.1z"/>
					<path class="st3" d="M113.5,164.5c1.7,0.1,3.5,0.3,5.2,0.6c0.1-0.9,0.3-1.9,0.4-2.8c0,0,0,0,0,0c-2-0.2-3.9-0.5-5.6-0.8V164.5z
						"/>
					<path class="st3" d="M142.9,177.8c3.1,2.8,5.7,5.7,8,8.5c2.1-0.1,4-0.2,5.9-0.4c0,0,0,0,0,0c0-1.4,0.1-2.7,0.1-4.1
						c0-6.7-0.5-13.2-1.6-19.1c0,0,0,0,0,0c-4.5,0.4-9.6,0.6-15.4,0.6c0,0-0.1,0-0.1,0c-5.8,0-10.8-0.2-15.3-0.6c0,0,0,0,0,0
						c-0.2,1.2-0.4,2.4-0.5,3.7C130.6,168.6,137.1,172.5,142.9,177.8z"/>
					<path class="st3" d="M161.9,190.9C161.9,190.9,161.9,191,161.9,190.9c-0.3,3.9-0.8,7.7-1.4,11.3c1.3,3,2.2,5.9,2.9,8.4
						c9.5-1.4,14.4-3.3,16.1-4c3.8-6.1,6.3-13.1,6.9-20.7C182.1,187.6,174.4,189.7,161.9,190.9z"/>
					<path class="st3" d="M173.6,214.2c-2.5,0.6-5.5,1.2-9.1,1.7c0.3,2.1,0.5,3.9,0.5,5.3C168.1,219.3,171,216.9,173.6,214.2
						C173.6,214.2,173.6,214.2,173.6,214.2z"/>
				</g>
				<path class="st0" d="M139.6,181.4c-10.5-9.7-21.9-12.8-30.9-12v-33.6c0-9-7.3-16.3-16.3-16.3c0,0,0,63.2,0,63.4
					c0.7,25.4,21.5,45.8,47,45.8c7.5,0,14.5-1.7,20.8-4.8C160.2,223.8,161.9,202,139.6,181.4z"/>
				<path class="st0" d="M128.6,131.1V72.2c0-4.5-3.7-8.2-8.2-8.2s-8.2,3.7-8.2,8.2v65.5C117.2,134.6,122.7,132.3,128.6,131.1z"/>
				<path class="st0" d="M139.5,129.9c2.8,0,5.6,0.2,8.3,0.7V61c0-4.5-3.7-8.2-8.2-8.2h0c-4.5,0-8.2,3.7-8.2,8.2v69.5
					C134.1,130.1,136.7,129.9,139.5,129.9z"/>
				<path class="st0" d="M167,137.9V74.3c0-4.5-3.7-8.2-8.2-8.2c-4.5,0-8.2,3.7-8.2,8.2v56.8C156.6,132.4,162.1,134.8,167,137.9z"/>
				<path class="st0" d="M186.5,160.4V94.7c0-4.5-3.7-8.2-8.2-8.2h0c-4.5,0-8.2,3.7-8.2,8.2v45.4
					C177.3,145.3,182.9,152.3,186.5,160.4z"/>
			</g>
		</g>
	</g>
	<g>
		<g>
			<path class="st0" d="M264.6,89.4h7.4l14.6,53.5l20.6-53.5h1.4l20.4,53.5l14.9-53.5h7.3L330.6,163h-1.4l-21.3-56.1L286.2,163h-1.3
				L264.6,89.4z"/>
			<path class="st0" d="M348.6,135c0-7.8,2.7-14.5,8.1-20c5.4-5.5,11.9-8.3,19.6-8.3s14.2,2.8,19.6,8.3c5.4,5.5,8.1,12.2,8.1,19.9
				c0,7.7-2.7,14.3-8,19.8s-11.9,8.2-19.7,8.2s-14.4-2.8-19.7-8.2C351.3,149.2,348.6,142.6,348.6,135z M397,135.1
				c0-5.9-2-11-6.2-15.2c-4.1-4.3-9-6.5-14.6-6.5c-5.6,0-10.5,2.1-14.5,6.5c-4.1,4.3-6.1,9.4-6.1,15.3c0,5.9,2,11,5.9,15.1
				c3.9,4.1,8.8,6.2,14.7,6.2c5.8,0,10.8-2.1,14.8-6.2C395,146.1,397,141,397,135.1z"/>
			<path class="st0" d="M414,108.1h7v7.7c1.9-3.1,3.7-5.4,5.5-6.9c1.8-1.5,3.7-2.2,5.9-2.2c2.2,0,4.4,0.6,6.6,1.8l-3.6,5.8
				c-1-0.6-2-0.9-3.1-0.9c-2.1,0-4,1.1-5.9,3.2c-1.8,2.1-3.2,4.9-4,8.2c-0.9,3.4-1.3,9.5-1.3,18.3v18h-7V108.1z"/>
			<path class="st0" d="M447.4,87.6h6.8v73.6h-6.8V87.6z"/>
			<path class="st0" d="M518.3,87.6v73.6h-6.7v-9.1c-6.1,7.3-13,10.9-20.9,10.9c-7.8,0-14.4-2.8-19.8-8.3c-5.3-5.5-8-12.2-8-19.9
				c0-7.7,2.7-14.3,8.1-19.8c5.4-5.5,11.9-8.2,19.4-8.2c8.7,0,15.7,3.7,21.1,11.1V87.6H518.3z M512,135c0-6.1-2-11.2-6-15.4
				c-4-4.2-9-6.3-15-6.3s-11,2.2-15,6.5c-4,4.3-6,9.4-6,15.2c0,5.8,2.1,10.9,6.2,15.2c4.1,4.3,9,6.5,14.6,6.5c5.6,0,10.6-2,14.9-6.2
				C509.9,146.4,512,141.2,512,135z"/>
		</g>
		<g>
			<path class="st0" d="M292.4,203.4h-3.8v-3.7c-2.8,3-5.9,4.6-9.5,4.6c-3.6,0-6.7-1.3-9.2-4s-3.8-5.8-3.8-9.5
				c0-3.7,1.3-6.8,3.9-9.4c2.6-2.6,5.7-3.9,9.4-3.9c3.7,0,6.8,1.5,9.3,4.5V178h3.8V203.4z M279.4,200.6c2.6,0,4.8-0.9,6.6-2.8
				c1.9-1.9,2.8-4.2,2.8-7c0-2.8-0.9-5.1-2.7-7s-4.1-2.8-6.7-2.8c-2.7,0-4.9,1-6.7,2.9s-2.7,4.2-2.7,6.9c0,2.6,0.9,4.9,2.8,6.9
				C274.5,199.7,276.8,200.6,279.4,200.6z"/>
			<path class="st0" d="M310.8,178.4l-2,3.3c-0.5-0.3-1-0.4-1.5-0.4c-1,0-1.8,0.5-2.6,1.4c-0.8,0.9-1.4,2.2-1.7,3.7
				c-0.4,1.5-0.6,4.3-0.6,8.3v8.7h-3.9V178h3.9v2.7c0.8-1.1,1.6-2,2.3-2.6c0.8-0.6,1.7-0.8,2.7-0.8
				C308.3,177.4,309.5,177.7,310.8,178.4z"/>
			<path class="st0" d="M324.1,177.4c3.7,0,6.8,1.3,9.3,4c2.6,2.6,3.8,5.8,3.8,9.5s-1.3,6.8-3.8,9.5c-2.5,2.6-5.6,3.9-9.4,3.9
				c-3.7,0-6.9-1.3-9.4-3.9c-2.5-2.6-3.8-5.8-3.8-9.5s1.3-6.9,3.8-9.5C317.3,178.7,320.5,177.4,324.1,177.4z M324.1,200.6
				c2.6,0,4.8-0.9,6.6-2.8s2.7-4.1,2.7-6.8s-0.9-4.9-2.8-6.9c-1.8-1.9-4-2.9-6.6-2.9c-2.5,0-4.7,1-6.5,2.9s-2.7,4.2-2.7,6.9
				s0.9,4.9,2.7,6.8C319.3,199.6,321.5,200.6,324.1,200.6z"/>
			<path class="st0" d="M364.4,203.4h-3.9v-3.8c-2.5,3-5.5,4.5-8.9,4.5c-1.8,0-3.5-0.5-5-1.4c-1.5-0.9-2.6-2.2-3.3-3.9
				c-0.7-1.7-1.1-4.2-1.1-7.6v-13h3.8v12.1c0,2.8,0.1,4.7,0.4,5.7c0.3,1,0.7,1.9,1.2,2.6c0.5,0.7,1.2,1.2,2,1.6
				c0.8,0.3,1.8,0.5,2.9,0.5c1.1,0,2.2-0.3,3.3-0.8c1.1-0.6,2-1.3,2.8-2.3c0.8-1,1.3-2,1.6-3.2c0.3-1.1,0.4-3.3,0.4-6.7V178h3.9
				V203.4z"/>
			<path class="st0" d="M393.1,203.4h-3.8v-12.1c0-2.8-0.1-4.7-0.4-5.7c-0.3-1-0.7-1.9-1.2-2.6c-0.5-0.7-1.2-1.2-2-1.6
				c-0.8-0.3-1.8-0.5-2.9-0.5c-1.1,0-2.2,0.3-3.3,0.8c-1.1,0.6-2,1.3-2.8,2.3s-1.3,2-1.6,3.2c-0.3,1.1-0.4,3.3-0.4,6.7v9.4h-3.9V178
				h3.9v3.8c2.5-3,5.5-4.5,8.9-4.5c1.8,0,3.5,0.5,5,1.4c1.5,0.9,2.6,2.2,3.3,3.9c0.7,1.7,1.1,4.2,1.1,7.6V203.4z"/>
			<path class="st0" d="M423.9,203.4h-3.8v-3.7c-2.8,3-5.9,4.6-9.6,4.6c-3.6,0-6.7-1.3-9.2-4c-2.5-2.6-3.8-5.8-3.8-9.5
				c0-3.7,1.3-6.8,3.9-9.5c2.6-2.6,5.7-3.9,9.4-3.9c3.7,0,6.8,1.5,9.3,4.5v-13.4h3.8V203.4z M410.9,200.6c2.4,0,4.6-0.9,6.6-2.7
				c1.9-1.8,2.9-4.1,2.9-7s-0.9-5.1-2.7-7c-1.8-1.9-4-2.8-6.7-2.8c-2.7,0-5,1-6.8,2.9s-2.7,4.2-2.7,6.8c0,2.6,0.9,4.9,2.8,6.9
				S408.3,200.6,410.9,200.6z"/>
			<path class="st0" d="M463.7,178l-15,34.3h-4l4.9-11.2L439.3,178h4l8.3,18.6l8-18.6H463.7z"/>
			<path class="st0" d="M477.4,177.4c3.7,0,6.8,1.3,9.3,4c2.6,2.6,3.8,5.8,3.8,9.5s-1.3,6.8-3.8,9.5c-2.5,2.6-5.6,3.9-9.4,3.9
				c-3.7,0-6.9-1.3-9.4-3.9c-2.5-2.6-3.8-5.8-3.8-9.5s1.3-6.9,3.8-9.5C470.6,178.7,473.7,177.4,477.4,177.4z M477.4,200.6
				c2.6,0,4.8-0.9,6.6-2.8s2.7-4.1,2.7-6.8s-0.9-4.9-2.8-6.9c-1.8-1.9-4-2.9-6.6-2.9c-2.5,0-4.7,1-6.5,2.9s-2.7,4.2-2.7,6.9
				s0.9,4.9,2.7,6.8C472.5,199.6,474.7,200.6,477.4,200.6z"/>
			<path class="st0" d="M517.7,203.4h-3.9v-3.8c-2.5,3-5.5,4.5-8.9,4.5c-1.8,0-3.5-0.5-5-1.4c-1.5-0.9-2.6-2.2-3.3-3.9
				c-0.7-1.7-1.1-4.2-1.1-7.6v-13h3.8v12.1c0,2.8,0.1,4.7,0.4,5.7c0.3,1,0.7,1.9,1.2,2.6c0.5,0.7,1.2,1.2,2,1.6
				c0.8,0.3,1.8,0.5,2.9,0.5c1.1,0,2.2-0.3,3.3-0.8c1.1-0.6,2-1.3,2.8-2.3c0.8-1,1.3-2,1.6-3.2c0.3-1.1,0.4-3.3,0.4-6.7V178h3.9
				V203.4z"/>
		</g>
	</g>
</g>
</svg>
